<?xml version="1.0" encoding="utf-8"?>
<!-- Generator: Adobe Illustrator 23.0.1, SVG Export Plug-In . SVG Version: 6.00 Build 0)  -->
<svg version="1.1" id="Capa_1" xmlns="http://www.w3.org/2000/svg" xmlns:xlink="http://www.w3.org/1999/xlink" x="0px" y="0px"
	 viewBox="0 0 170.6 161.2" style="enable-background:new 0 0 170.6 161.2;" xml:space="preserve">
<style type="text/css">
	.st0{fill-rule:evenodd;clip-rule:evenodd;fill:#F4F4F4;}
	.st1{fill-rule:evenodd;clip-rule:evenodd;fill:#FAD50A;}
	.st2{fill-rule:evenodd;clip-rule:evenodd;fill:#D40203;}
	.st3{fill-rule:evenodd;clip-rule:evenodd;fill:#B10101;}
	.st4{fill-rule:evenodd;clip-rule:evenodd;fill:#570807;}
	.st5{fill-rule:evenodd;clip-rule:evenodd;fill:#740203;}
	.st6{fill-rule:evenodd;clip-rule:evenodd;fill:#C99704;}
	.st7{fill-rule:evenodd;clip-rule:evenodd;fill:#D7AD04;}
	.st8{fill-rule:evenodd;clip-rule:evenodd;fill:#B98806;}
	.st9{fill:#A60401;stroke:#FFC317;stroke-width:19;stroke-miterlimit:10;}
	.st10{fill:#FFC317;stroke:#FFFFFF;stroke-width:9;stroke-miterlimit:10;}
	.st11{fill:#A60401;}
</style>
<rect class="st0" width="170.6" height="161.2"/>
<g>
	<g>
		<path class="st1" d="M88.2,49.9c-6,1.8-10.5,5.5-11.9,11.8c-1.1-1.3-1.5-2.3-2.8-3.3c-1.1-0.8-2.2-1.7-3.8-2.3
			c-2.3-0.8-8-1.5-9.8,0.1c-1.6,0.6-3.3,1.7-4.2,2.6c-0.8,0.7-2,2.5-2.7,3.9c-3.1,6.3-0.8,7.9-1.3,10.7l-3.9-0.1
			c-1.2,0.3-2,0.6-3,1.1c-1,0.6-1.4,0.8-2,1.8c-0.6-0.4-0.3,0.4-0.5-0.3c-0.1,1-1.4,2.3-1.9,3.7c-0.6,1.6-0.6,3.3-0.5,5.2
			c1.4,4.4,2.6,5.3,6,7.3l0.1,1.2c0.6,2.2,2.3,4.7,4,5.5c2.2,0.8,3.1,1.5,5.9,1.1c1.9-0.2,3.7-1.2,4.7-2.2c2.4,3.2,5.7,3.5,8.2,0
			c2.2,2.4,4.1,6,10.2,5.9c5.6-0.1,7.8-3.1,10.2-6.2l1.5,2c0.6,0.8,1.1,1.1,1.8,1.9c0.6,0.3,0.7,0.4,1.2,0.9
			c4.2,1.9,8.1,2.8,12.7-0.5c3.1-2.2,5.3-5.8,4.7-11.6c3,0.5,4.3,0.7,6.5-1.1c1.6-1.3,2.5-3.5,2.2-6.6c3-1.9,4.5-6.8,2.9-10.8
			c-0.2-0.6-0.6-1.2-0.9-1.7c-0.6-0.8-0.7-0.7-1-1.6c-0.2-0.2-0.1-0.1-0.3-0.3c-0.1-0.1-0.2-0.2-0.2-0.2c-0.2-0.2-0.1,0-0.5-0.3
			l-1.4-0.8c-2.3-0.8-3.6-1.6-6.6-1c-2.3,0.5-3.7,1.5-5,2.5c0.1-3.4,0.5-5.1-0.7-8.2C103.5,52.6,96.7,48.7,88.2,49.9L88.2,49.9z"/>
		<path class="st2" d="M42.4,75.7c0.2,0.7-0.1-0.1,0.5,0.3c0.6-1,1-1.2,2-1.8c1-0.5,1.8-0.9,3-1.1l4.9,0.1c-1.1-4-1.6-6.8,0.3-10.7
			c0.6-1.4,1.9-3.2,2.7-3.9c1-0.9,2.6-1.9,4.2-2.6l-1.4-0.6l0.1-0.1l0.3-0.1c1-0.2-0.5,0.5,0.5-0.1L59.3,55c-0.1,0-0.1-0.1-0.1-0.1
			l-0.9-0.6c0.1-0.1,0.1-0.1,0.1-0.1l1-0.6c0.4,0.1,0.4,0.7,0.3-0.5c-0.2-1.6,0.1-0.6,2.8-1l4.4-0.9c0.9-0.1,0.7-0.5,2-1
			c1.3-0.5,3-1.8,3.9-3c1.2-1.8,1-0.9,1.1-0.8c0.5-1-0.2,0.3,0.1-0.5c0.2-0.7-0.3,0.3,0.2-0.3l1.6-3.7c0.3,1.6,1.3,2.2,2.3,3
			c0.9,0.7,1.1,1.3,2.2,1.8l7.2,2.7c1.6,0.4,0.7,0.1,0.9-0.1l-0.1,0.4c8.5-1.1,15.3,2.7,18,9.9c1.2,3.2,0.9,4.9,0.7,8.2
			c1.2-1,2.7-2.1,5-2.5c3-0.6,4.3,0.2,6.6,1c0.6-2.4,0.9-2.8,2.1-4.7c1.6-2.4,3.2-2.7,3.1-3.4c-7.5,2.6-17.8,0.3-19.8-7.8
			c-0.9-3.8,0.4-5.2,1.3-8.1l-1-1.1c-0.3,0.2-0.2,0.2-0.5,0.5c-0.8,0.9-1,1.6-2.4,2.8c-1.2,1-1.9,1.6-3.6,2.4
			C91.1,50,80.1,48.5,77,41.1c-0.4-0.9-0.5-1.4-0.7-2.3c-0.5-1.4-0.6-0.6-1.2-1.5c-0.1,4,0.2,5.5-2.1,8.3c-1.4,1.9-3.5,3.6-6.6,4.6
			c-7.3,2.4-12.5,0.4-17.4-2.8c1.1,1.9,3.1,3.6,3,7.7c-0.1,3.3-1.5,5.1-3.4,7.2c-4,4.3-10,4.7-16.9,3.7c0.9,1.6,1.3,1.2,3.2,1.9
			C38.5,69.3,41.6,71.4,42.4,75.7L42.4,75.7z"/>
		<path class="st3" d="M101.2,116.1c-0.1-2.2-0.9-3.5-0.1-6.1c0.6-2,1.2-3,2.3-4.7c-2.2,0.3-2.1,1-5.2,0l-1.3-0.6
			c-1.1-0.7-0.8-0.2-2.3-1.2c-0.1,0-0.1-0.1-0.1-0.1c-0.1,0-0.1-0.1-0.2-0.1l-0.8-0.4c0.2-0.5,0.1,0,0.1-0.7
			c-0.5-0.5-0.6-0.6-1.2-0.9h-0.7c-0.6-0.2-0.1-0.1-0.9-0.3c-0.1,0.1-0.1,0.1-0.1,0.2c-0.7,1-0.4,1.1-1.6,1.2c0.5,0.8-2,1.9-2.6,2.2
			l-3.2,1.2c-0.1,0-0.1,0-0.1,0.1l-0.3,0.1c-1,0.2-1.9,0.2-2.8,0l-2.4-0.5c-0.3-0.2-0.4,0.1-0.9-0.1c-1-0.4-2.6-1.9-3.6-1.9
			c-0.9,0-0.1-0.3-0.5,0.2c-0.2-0.3,0.4-0.2-0.3-0.5c-1.5-0.5,1.1-0.2-0.5,0.2c0.3-0.6,0.2,0.8,0-0.5l-0.2-1.1l-0.7,0.3
			c-0.1,0-0.1,0-0.2,0c-1,0.2-0.3,0.2-1,0.7c-0.5,0.4,0.6-0.1-0.5,0.1l-1.5,0.4c-0.6,0-1.2-0.4-1.5,0.1c-0.1-0.2,0.1-0.3-0.2-0.5
			l-0.5-0.2c0,0-0.1,0-0.1-0.1h-0.1c-1.9-0.4-1.5-0.9-2.4-0.9l-1,0.1h-0.1l-0.6,0.3c-0.1,0-0.2,0.1-0.2,0.1l-2.4,0.6
			c-0.4,0.1-0.6,0.1-0.9,0.4l-0.2-0.5c0-0.1-0.1-0.1-0.1-0.1c-0.6,0.5-0.5,0.2-0.7,0.9c-0.2-0.2,0-0.1-0.5-0.3
			c-0.6-0.2-0.9-0.3-1.2,0.2c0.2-0.3,0.5,0.3,0-0.5c-0.3-0.6,0.5,0.1-0.3-0.3c-1.3-0.6-0.3-0.2-0.9,0.2c0.1-0.5,0.6,0.3-0.1-0.6
			c-0.4-0.5-1.3-0.8-1.8-1.1c-1.3-0.8-0.6-1.1-1.4-1.6h-0.5c0.5,5.6-1.5,7.8-4.4,10.3L47,111c1.4-0.3,8.1-6.7,18.2-3.1
			c4.6,1.6,7.6,4.4,7.8,9.3c0.1,1.1-0.2,1.6-0.2,2.6c-0.1,1.1,0.4,1.2,0.9,1.8c0.3-0.3,0.1-0.1,0.3-0.5c0.5-0.9,0.3-1.4,1.5-3.3
			c0.8-1.2,1.6-1.9,2.6-2.8c3.9-3.7,11.3-4.7,16.6-3C99.1,113.5,100.4,115.7,101.2,116.1L101.2,116.1z"/>
		<path class="st4" d="M93.7,102c-0.1,0.8,0.1,0.3-0.1,0.7l0.8,0.4c0.1,0.1,0.1,0.1,0.2,0.1c0.1,0,0.1,0.1,0.1,0.1
			c1.4,1,1.1,0.6,2.3,1.2l1.3,0.6c3.1,1,3.1,0.3,5.2,0c-1.1,1.8-1.7,2.7-2.3,4.7c-0.8,2.7-0.1,3.9,0.1,6.1c0.2,1,0.6,1.7,1.6,2.3
			c-0.8-3.6-1.6-5.4,0.1-9c2.3-4.8,8.7-7.7,14.2-7.7c1.6,0,3.3,0.3,4.7,0.7s2.6,1.1,3.8,1.5c-0.6-0.7-1.7-1.8-2.7-2
			c-4.4-1.1-5.6-1.8-10.6-1.1c-0.1,0-0.7,0.1-0.8,0.1l-0.7-0.2l0.8-0.7c0.1,0,0.1-0.1,0.1-0.1c0,0,0.1-0.1,0.1-0.1
			c0.5-0.4,0.6-1.1,0.7-1.7c0.7-3,0.9-0.8,0.7-3.2c-0.2-2.4,1-2.7,1-2.6c0,0.1,0.1-0.1,0.2-0.1c0.3-0.1,0.1-0.1,0.5-0.1
			c0.5,0,0.3,0.2,1.1,0c1.5-0.3,0.3-0.5,1.5-0.9c0.1,1.3,0.3,3.4,0.7,4.4c0.4,1.1,0.5,1.5,1.2,2.4l0.7,0.8c-0.9-2.5-1.9-4.1-1-7.2
			c1.9-6.6,7.9-9.9,15.6-9.9c-1-2-1.7-0.9-5.4-1.8c-1.8-0.5-3.6-1.1-4.7-2.2c1.2-3.8-1.6-8.2-3.7-9.6c0.3,0.9,0.4,0.8,1,1.6
			c0.3,0.5,0.6,1.1,0.9,1.7c1.6,4,0.1,9-2.9,10.8c0.3,3.1-0.6,5.3-2.2,6.6c-2.3,1.8-3.6,1.6-6.5,1.1c0.6,5.7-1.5,9.4-4.7,11.6
			C101.8,104.9,97.9,103.9,93.7,102L93.7,102z"/>
		<path class="st3" d="M60,56.2c1.8-1.6,7.5-0.9,9.8-0.1c1.6,0.6,2.7,1.5,3.8,2.3c1.3,1,1.7,2,2.8,3.3c1.4-6.3,5.9-10,11.9-11.8
			l0.1-0.4c-0.2,0.2,0.7,0.5-0.9,0.1l-7.2-2.7c-1.1-0.5-1.2-1.1-2.2-1.8c-0.9-0.8-1.9-1.3-2.3-3l-1.6,3.7c-0.6,0.6-0.1-0.4-0.2,0.3
			c-0.3,0.8,0.5-0.4-0.1,0.5c-0.2-0.1,0.1-0.9-1.1,0.8c-0.9,1.2-2.6,2.4-3.9,3s-1.2,0.9-2,1l-4.4,0.9c-2.7,0.5-3-0.6-2.8,1
			c0.2,1.2,0.2,0.6-0.3,0.5l-1,0.6c-0.1,0.1-0.1,0.1-0.1,0.1l0.9,0.6c0.1,0,0.1,0.1,0.1,0.1l0.2,0.2c-0.9,0.6,0.6-0.1-0.5,0.1
			l-0.3,0.1c0,0-0.1,0-0.1,0.1L60,56.2z"/>
		<path class="st5" d="M50.1,98.6l0.3,0.9h0.5c0.8,0.5,0.1,0.8,1.4,1.6c0.5,0.3,1.4,0.6,1.8,1.1c0.7,0.9,0.2,0.1,0.1,0.6
			c0.5-0.3-0.5-0.9,0.9-0.2c0.8,0.4,0-0.3,0.3,0.3c0.5,0.9,0.2,0.2,0,0.5c0.3-0.6,0.5-0.5,1.2-0.2c0.4,0.2,0.2,0.1,0.5,0.3
			c0.2-0.6,0.1-0.3,0.7-0.9c0,0.1,0.1,0.1,0.1,0.1l0.2,0.5c0.2-0.3,0.5-0.3,0.9-0.4l2.4-0.6c0.1,0,0.2-0.1,0.2-0.1l0.6-0.3h0.1
			l1-0.1c0.9,0.1,0.5,0.5,2.4,0.9h0.1l0.1,0.1l0.5,0.2c0.3,0.2,0.1,0.3,0.2,0.5c0.4-0.5,1-0.1,1.5-0.1l1.5-0.4
			c1.1-0.2-0.1,0.3,0.5-0.1c0.7-0.5,0-0.5,1-0.7c0.1,0,0.1,0,0.2,0l0.7-0.3l0.2,1.1c0.2,1.2,0.3-0.1,0,0.5c1.5-0.3-1.1-0.6,0.5-0.2
			c0.7,0.2,0.1,0.1,0.3,0.5c0.3-0.5-0.5-0.2,0.5-0.2c1,0,2.6,1.5,3.6,1.9c0.5,0.2,0.5-0.1,0.9,0.1l2.4,0.5c1,0.1,1.8,0.2,2.8,0
			l0.3-0.1c0.1,0,0.1,0,0.1-0.1l3.2-1.2c0.6-0.3,3.2-1.4,2.6-2.2c1.2-0.1,1-0.2,1.6-1.2c0-0.1,0.1-0.1,0.1-0.2
			c0.7,0.2,0.2,0.1,0.9,0.3h0.7c-0.7-0.9-1.1-1.1-1.8-1.9l-1.5-2c-2.4,3.2-4.5,6.2-10.2,6.2c-6.1,0.1-8.1-3.5-10.2-5.9
			c-2.4,3.5-5.8,3.2-8.2,0c-0.9,0.9-2.8,1.9-4.7,2.2C53.2,100.1,52.3,99.4,50.1,98.6L50.1,98.6z"/>
		<path class="st3" d="M122.9,102l-2.7-3.1l-0.7-0.8c-0.7-0.9-0.9-1.3-1.2-2.4c-0.3-1-0.6-3.1-0.7-4.4c-1.2,0.3-0.1,0.6-1.5,0.9
			c-0.7,0.2-0.6,0-1.1,0c-0.4,0-0.2,0-0.5,0.1c-0.1,0-0.2,0.1-0.2,0.1c-0.1-0.1-1.2,0.2-1,2.6c0.2,2.4,0.1,0.3-0.7,3.2
			c-0.2,0.6-0.3,1.3-0.7,1.7c0,0-0.1,0.1-0.1,0.1c-0.1,0-0.1,0.1-0.1,0.1l-0.8,0.7l0.7,0.2c0.1,0,0.7-0.1,0.8-0.1
			C117.4,100.2,118.5,100.9,122.9,102L122.9,102z"/>
		<path class="st3" d="M46.1,93.1L46,91.9c-3.4-2-4.6-2.9-6-7.3c-2.4,2-3.1,3-6.6,4.1c-0.7,0.2-2,0.5-2.6,0.9l0.9,1.1
			c3-0.3,4.9-0.7,8-0.1C42.9,91.2,43.9,92.2,46.1,93.1L46.1,93.1z"/>
		<path class="st6" d="M43.9,100.2c0.7-0.5,1.4-0.6,1.4-1.5c-1-0.1-8.5,4.4-10.5,5.4c-0.9,0.5-0.9,0.2-1.1,1
			c0.7,0.4,1.5,0.2,2.5,0.2l-0.7,0.6c-0.2,0.1-0.5,0.3-0.7,0.5l-3.9,2.7c0.3,0.9,0.5,0.9,1,1.5c1.1-0.4,3.7-2.4,4.8-3.2
			c0.8-0.6,1.5-1.1,2.3-1.6c1.6-1.2,1.7-0.9,1.9-1.9c-0.7-0.3-1.6-0.1-2.7-0.1L43.9,100.2z"/>
		<path class="st6" d="M118.8,50.9c0.2-1,0.6-1.4,0.7-2.6c-1.4,0.3-4.3,3.6-6.4,5.2c-0.7,0.6-0.6,0.2-0.7,1.3c1.2-0.1,2.6-1.5,4-2.6
			c-0.3,1.1-0.7,1.5-0.9,2.6c2.4-0.5,7.6-5.2,9.7-5.8c-0.2-1.3-0.3-1.2-1.1-1.9C123.2,47.5,119.5,50.3,118.8,50.9L118.8,50.9z"/>
		<path class="st7" d="M34.3,51.9c0.7,0.6,1.6,1.2,2.6,1.8c1.5,1,6.5,5.2,8.2,5.2c-0.2-1.9-0.6-0.7-2.2-2.5c-0.9-1-0.9-0.6-2.3-2.1
			c-0.4-0.5-0.7-0.6-1.2-0.9c-0.6-0.5-0.5-0.6-2.3-2c-0.7-0.6-0.6-0.6-1.1-1.2C34.7,50.4,34.6,50.9,34.3,51.9L34.3,51.9z"/>
		<path class="st6" d="M112.3,112.2c-2.2-2-0.8-1.9-2.6-2.1c0.1,1.3,1,2.2,1.6,3l5.3,7.8c1-0.3,1.3-0.5,1.8-1.4
			c-0.8-1.4-2.2-2.6-3.2-3.7c-0.3-0.4-0.5-0.9-0.9-1.2c-0.5-0.6-0.6-0.5-1.2-1.1C112.9,112.9,112.8,112.6,112.3,112.2L112.3,112.2z"
			/>
		<path class="st6" d="M38.6,78.2c-0.2-0.9-0.9-0.9-2.1-1.1l-6.6-1.6c-1-0.1-0.6-0.3-0.9,0.3c-0.4,0.7-0.3,2.4,0.4,2.6
			C29.4,78.4,37.8,79,38.6,78.2L38.6,78.2z"/>
		<path class="st4" d="M123.7,58.4c0.2,0.8-1.4,1-3.1,3.4c-1.2,1.8-1.5,2.3-2.1,4.7l1.4,0.8c1-5.1,4.7-6.6,7.2-8.5l-0.9-1.2
			L123.7,58.4z"/>
		<path class="st6" d="M59,38c0.1,0.9,4.3,9.2,4.5,9.5c0.3,0.5,0.1,0.3,0.7,0.5c0.4-0.9-2.6-9.3-3.2-10.7C60.1,37.3,59.7,37.5,59,38
			L59,38z"/>
		<path class="st7" d="M115.4,109.3c-1.1-0.4-3-1.5-3.9-1c-0.1,1,5.8,4.8,6.6,4.8l0.5-0.6l0.2-0.5c0.3-0.7,0.3-0.5,0.3-1.2
			C118.5,110.3,116.5,109.6,115.4,109.3L115.4,109.3z"/>
		<path class="st6" d="M32.9,98.1c1.2,0.3,4.2-0.3,5.6-0.5c0.9-0.1,1.8-0.2,2.7-0.3c2.7-0.3,2-0.1,2.3-0.7c-0.5-0.5-1.2-0.3-2.5-0.3
			c-0.9,0-1.9,0-2.8-0.1c-1.5,0-3.9-0.2-5.3,0L32.9,98.1z"/>
		<path class="st6" d="M124,91.8c-0.1-0.1-0.1,0.1-0.2,0.1c0.2,0.2-0.2,0.3,0.8,0.7c1.2,0.6,6.4,2.1,7.3,2.2c0.2-1,0.6-1.2,0.5-2.4
			c-1.1-0.4-3-0.5-4.3-0.6L124,91.8z"/>
		<path class="st8" d="M87.2,115.5c-0.3,0.3-0.2-0.1-0.3,0.5s0.6,7.8,0.6,8.3c0.9,0.4,1.5,0.1,2.1-0.3c0.1-1.2-1.1-4.9-1.5-6.8
			C87.8,116.6,87.7,115.9,87.2,115.5L87.2,115.5z"/>
		<path class="st7" d="M128,69.7c-0.7,0.5-0.7,0.3-1,1.1c1.2,1.1,0.8-0.4,1.9,1.2l0.6,0.6c0.5-0.3,0.1,0,0.5-0.5
			c0.9-1.2-0.1-0.6,2-1.2c-0.1-0.9-0.2-0.9-0.9-1.4c0-1.1,0.3-0.8-0.1-1.8c-0.9,0.1-1,0.5-1.5,0.5c-0.7-0.1-0.5-0.5-1.5-0.5
			L128,69.7z"/>
		<path class="st6" d="M59.6,121.6c0.4-1.3,0.9-2.7,1.4-4.1c0.2-0.7,0.5-1.4,0.7-2c1-2.8,0.4-1.8,0.1-2.1c-0.6,0.3-1,1.2-1.4,1.9
			c-0.8,1.5-2.8,4.5-3,5.8C58.6,121.2,58.6,121.5,59.6,121.6L59.6,121.6z"/>
		<path class="st8" d="M110.7,52.4c1-0.2,0.5,0.2,1-0.6c0.8-1.2,3.3-6,3.4-6.8l-2-0.6C112.7,46.1,110.7,50.9,110.7,52.4L110.7,52.4z
			"/>
		<path class="st6" d="M91,36.7c-0.5,1.1-0.7,2.6-1,3.9c-0.2,1.1-1.2,3.2-0.5,4.1c0.7-0.3,0.6-0.6,1-1.5c0.6-1.1,2.4-5.1,2.4-5.8
			C92.3,36.7,91.7,36.6,91,36.7L91,36.7z"/>
		<path class="st1" d="M36.1,57.4c-2.3,1.1-0.6,4.3,1.6,3.1C39.4,59.6,38.3,56.3,36.1,57.4L36.1,57.4z"/>
		<path class="st7" d="M94,118.4c0.4-1.4,0.2-3.4-1.9-2.7c-0.6,0.2-1.1,0.8-1.1,1.6c0,0.7,0.5,1,0.8,1.4
			C92.9,118.9,93.3,118.7,94,118.4L94,118.4z"/>
		<path class="st7" d="M55.5,115.5c-0.5-1.6-0.5-0.7-0.2-2.4c-1.9,0.4-0.9,0.2-2.2-0.3c-1.1,2.7-0.3,0.5-1.1,1.8
			c2.2,1.8,0.5,0.6,1.5,1.6C54.6,115.5,53.8,115.5,55.5,115.5L55.5,115.5z"/>
		<path class="st1" d="M86.3,40.4c-0.7-0.4-0.8-0.8-1.8-0.5c-0.7,0.2-1.1,1-0.7,1.9S86.7,43.4,86.3,40.4L86.3,40.4z"/>
		<path class="st7" d="M53.2,44.2c1.2,0.1,1-0.2,1.2,1c1.4-0.7,0.4-0.9,1.9-1.1c-0.5-1.2-0.6-0.2-0.6-1.9c-1.4-0.1,0.3,0.3-2-0.1
			L53.2,44.2z"/>
	</g>
	<g>
		<g>
			<path class="st9" d="M33.6,66.2l0.9,6.1l-12.3,2.5l0.9,7.5l11.6-1.7l0.7,6l-9.2,1.4c-0.2,0-1,0.2-2.4,0.5
				c0.4,3.2,0.8,6.4,1.2,9.6c0.3,2,0.7,3.5,1.1,4.5l-7.9,1L15,76.4c-0.2-1.8-0.5-4.2-0.7-7L33.6,66.2z"/>
			<path class="st9" d="M57.4,97.5l-6.5,0.7l-0.1-0.3c-1,0.7-2,1.1-3,1.4c-2.6,0.3-4.9-0.1-7-1.2c-2.2-1.2-3.5-3.1-3.9-5.6
				c-0.5-3.2,0.6-5.8,3.1-8.1c1.6-1.5,3.8-2.4,6.4-2.7c0.7-0.1,1.5-0.1,2.4-0.1c-0.6-2.4-1.9-3.5-4-3.2c-1.5,0.2-2.8,0.9-4,1.8
				l-3.7-3.9c2.4-1.9,4.8-3,7-3.3c2.9-0.4,5.4,0.2,7.4,1.9c1.8,1.6,3,3.9,3.5,6.9c0.2,1.2,0.4,2.3,0.5,3.4l0.5,3.5
				c0.2,1.2,0.4,3.1,0.8,5.9C57.1,96,57.2,96.9,57.4,97.5z M49.5,86.8c-0.7-0.1-1.5-0.1-2.1,0c-1.5,0.2-2.6,0.8-3.3,1.7
				c-0.9,1-1.2,2-1,3.1c0.2,1.1,0.7,1.8,1.5,2.2c0.7,0.3,1.6,0.5,2.6,0.3s2-0.7,3.1-1.6L49.5,86.8z"/>
			<path class="st9" d="M75.4,78.9c0.2,0.9,0.3,2.4,0.6,4.8c0.2,1.8,0.7,5.6,1.5,11.2L71,95.8c-0.1-1.5-0.3-4.2-0.7-8.3
				c-0.2-1.9-0.5-4.5-0.9-7.7c-0.2-1.3-0.5-2.4-1-3.2c-0.7-1.1-1.6-1.5-2.8-1.4c-1,0.2-1.8,0.6-2.6,1.2l0.9,7.7
				c0.2,2,0.8,6.2,1.8,12.6l-7,0.8l-2.4-25.7l6.1-0.6c1-0.7,2-1.2,3-1.4c2.5-0.3,4.7,0.1,6.5,1.5C73.7,73.2,74.8,75.6,75.4,78.9z"/>
			<path class="st9" d="M92.9,68.7c0.1,1-0.3,2.4-1.2,4.4l-6.9,15.2c4.9-0.7,8.2-1.4,9.8-2l0.3,5.7c-1.4,0.6-3.5,1-6.1,1.4l-6,0.9
				c-3,0.5-4.5-0.3-4.8-2.1c-0.2-1.2,0.3-3,1.4-5.2c1.8-3.4,4-8.2,6.6-14.4l-4.3,0.6c-1.5,0.2-3.1,0.5-4.7,0.8l-1.1-5.5L88,66.7
				C90.9,66.2,92.6,66.9,92.9,68.7z"/>
			<path class="st9" d="M107.8,58.6c0,0.9-0.3,1.8-0.9,2.6c-0.6,0.7-1.4,1.2-2.3,1.3c-1,0.1-1.9-0.1-2.7-0.6
				c-0.9-0.5-1.4-1.2-1.5-2.2c-0.2-1,0.1-1.9,0.7-2.6s1.4-1.1,2.5-1.3c1-0.1,1.8,0.1,2.6,0.6C107.1,56.9,107.6,57.6,107.8,58.6z
				 M108.1,65.2l1.7,13.7c0.2,1.4,0.7,5.1,1.6,11.1l-7.7,0.8l-1.9-25.1L108.1,65.2z"/>
			<path class="st9" d="M135.1,70.2c0.2,0.9,0.3,2.4,0.6,4.8c0.2,1.8,0.7,5.6,1.5,11.2l-6.6,0.9c-0.1-1.5-0.3-4.2-0.7-8.3
				c-0.2-1.9-0.5-4.5-0.9-7.7c-0.2-1.3-0.5-2.4-1-3.2c-0.7-1.1-1.6-1.5-2.8-1.4c-1,0.2-1.8,0.6-2.6,1.2l0.9,7.7
				c0.2,2,0.8,6.2,1.8,12.6l-7,0.8L116,63.1l6.1-0.6c1-0.7,2-1.2,3-1.4c2.5-0.3,4.7,0.1,6.5,1.5C133.4,64.4,134.6,66.9,135.1,70.2z"
				/>
			<path class="st9" d="M156.4,76.8c-3,4.8-6,7.5-9,7.9c-3,0.5-5.6-0.5-7.8-2.8c-1.9-2-3.1-4.8-3.6-8.5c-0.6-4-0.2-7.5,1.2-10.2
				c1.5-2.7,3.7-4.4,6.9-4.8c3.1-0.5,5.6,0.5,7.7,2.8c1.8,2.1,3.1,5.4,3.9,9.8c-0.9,0-2,0.1-3.3,0.3c-3.1,0.5-6.5,1-10.2,1.8
				c0.3,1.6,0.7,3,1.5,4.2c1,1.6,2.2,2.4,3.5,2.2c1.1-0.2,2-1,2.7-2.6c0.6-1.4,1-2.7,1-4L156.4,76.8z M148.4,66.7
				c-0.2-1.1-0.7-1.9-1.4-2.5c-0.6-0.6-1.4-0.7-2.4-0.6c-1.2,0.2-2.1,1.1-2.7,2.7c-0.1,0.4-0.2,0.9-0.2,1.3L148.4,66.7z"/>
		</g>
	</g>
	<g>
		<g>
			<path class="st10" d="M33.6,66.2l0.9,6.1l-12.3,2.5l0.9,7.5l11.6-1.7l0.7,6l-9.2,1.4c-0.2,0-1,0.2-2.4,0.5
				c0.4,3.2,0.8,6.4,1.2,9.6c0.3,2,0.7,3.5,1.1,4.5l-7.9,1L15,76.4c-0.2-1.8-0.5-4.2-0.7-7L33.6,66.2z"/>
			<path class="st10" d="M57.4,97.5l-6.5,0.7l-0.1-0.3c-1,0.7-2,1.1-3,1.4c-2.6,0.3-4.9-0.1-7-1.2c-2.2-1.2-3.5-3.1-3.9-5.6
				c-0.5-3.2,0.6-5.8,3.1-8.1c1.6-1.5,3.8-2.4,6.4-2.7c0.7-0.1,1.5-0.1,2.4-0.1c-0.6-2.4-1.9-3.5-4-3.2c-1.5,0.2-2.8,0.9-4,1.8
				l-3.7-3.9c2.4-1.9,4.8-3,7-3.3c2.9-0.4,5.4,0.2,7.4,1.9c1.8,1.6,3,3.9,3.5,6.9c0.2,1.2,0.4,2.3,0.5,3.4l0.5,3.5
				c0.2,1.2,0.4,3.1,0.8,5.9C57.1,96,57.2,96.9,57.4,97.5z M49.5,86.8c-0.7-0.1-1.5-0.1-2.1,0c-1.5,0.2-2.6,0.8-3.3,1.7
				c-0.9,1-1.2,2-1,3.1c0.2,1.1,0.7,1.8,1.5,2.2c0.7,0.3,1.6,0.5,2.6,0.3s2-0.7,3.1-1.6L49.5,86.8z"/>
			<path class="st10" d="M75.4,78.9c0.2,0.9,0.3,2.4,0.6,4.8c0.2,1.8,0.7,5.6,1.5,11.2L71,95.8c-0.1-1.5-0.3-4.2-0.7-8.3
				c-0.2-1.9-0.5-4.5-0.9-7.7c-0.2-1.3-0.5-2.4-1-3.2c-0.7-1.1-1.6-1.5-2.8-1.4c-1,0.2-1.8,0.6-2.6,1.2l0.9,7.7
				c0.2,2,0.8,6.2,1.8,12.6l-7,0.8l-2.4-25.7l6.1-0.6c1-0.7,2-1.2,3-1.4c2.5-0.3,4.7,0.1,6.5,1.5C73.7,73.2,74.8,75.6,75.4,78.9z"/>
			<path class="st10" d="M92.9,68.7c0.1,1-0.3,2.4-1.2,4.4l-6.9,15.2c4.9-0.7,8.2-1.4,9.8-2l0.3,5.7c-1.4,0.6-3.5,1-6.1,1.4l-6,0.9
				c-3,0.5-4.5-0.3-4.8-2.1c-0.2-1.2,0.3-3,1.4-5.2c1.8-3.4,4-8.2,6.6-14.4l-4.3,0.6c-1.5,0.2-3.1,0.5-4.7,0.8l-1.1-5.5L88,66.7
				C90.9,66.2,92.6,66.9,92.9,68.7z"/>
			<path class="st10" d="M107.8,58.6c0,0.9-0.3,1.8-0.9,2.6c-0.6,0.7-1.4,1.2-2.3,1.3c-1,0.1-1.9-0.1-2.7-0.6
				c-0.9-0.5-1.4-1.2-1.5-2.2c-0.2-1,0.1-1.9,0.7-2.6s1.4-1.1,2.5-1.3c1-0.1,1.8,0.1,2.6,0.6C107.1,56.9,107.6,57.6,107.8,58.6z
				 M108.1,65.2l1.7,13.7c0.2,1.4,0.7,5.1,1.6,11.1l-7.7,0.8l-1.9-25.1L108.1,65.2z"/>
			<path class="st10" d="M135.1,70.2c0.2,0.9,0.3,2.4,0.6,4.8c0.2,1.8,0.7,5.6,1.5,11.2l-6.6,0.9c-0.1-1.5-0.3-4.2-0.7-8.3
				c-0.2-1.9-0.5-4.5-0.9-7.7c-0.2-1.3-0.5-2.4-1-3.2c-0.7-1.1-1.6-1.5-2.8-1.4c-1,0.2-1.8,0.6-2.6,1.2l0.9,7.7
				c0.2,2,0.8,6.2,1.8,12.6l-7,0.8L116,63.1l6.1-0.6c1-0.7,2-1.2,3-1.4c2.5-0.3,4.7,0.1,6.5,1.5C133.4,64.4,134.6,66.9,135.1,70.2z"
				/>
			<path class="st10" d="M156.4,76.8c-3,4.8-6,7.5-9,7.9c-3,0.5-5.6-0.5-7.8-2.8c-1.9-2-3.1-4.8-3.6-8.5c-0.6-4-0.2-7.5,1.2-10.2
				c1.5-2.7,3.7-4.4,6.9-4.8c3.1-0.5,5.6,0.5,7.7,2.8c1.8,2.1,3.1,5.4,3.9,9.8c-0.9,0-2,0.1-3.3,0.3c-3.1,0.5-6.5,1-10.2,1.8
				c0.3,1.6,0.7,3,1.5,4.2c1,1.6,2.2,2.4,3.5,2.2c1.1-0.2,2-1,2.7-2.6c0.6-1.4,1-2.7,1-4L156.4,76.8z M148.4,66.7
				c-0.2-1.1-0.7-1.9-1.4-2.5c-0.6-0.6-1.4-0.7-2.4-0.6c-1.2,0.2-2.1,1.1-2.7,2.7c-0.1,0.4-0.2,0.9-0.2,1.3L148.4,66.7z"/>
		</g>
	</g>
	<g>
		<g>
			<path class="st11" d="M33.6,66.2l0.9,6.1l-12.3,2.5l0.9,7.5l11.6-1.7l0.7,6l-9.2,1.4c-0.2,0-1,0.2-2.4,0.5
				c0.4,3.2,0.8,6.4,1.2,9.6c0.3,2,0.7,3.5,1.1,4.5l-7.9,1L15,76.4c-0.2-1.8-0.5-4.2-0.7-7L33.6,66.2z"/>
			<path class="st11" d="M57.4,97.5l-6.5,0.7l-0.1-0.3c-1,0.7-2,1.1-3,1.4c-2.6,0.3-4.9-0.1-7-1.2c-2.2-1.2-3.5-3.1-3.9-5.6
				c-0.5-3.2,0.6-5.8,3.1-8.1c1.6-1.5,3.8-2.4,6.4-2.7c0.7-0.1,1.5-0.1,2.4-0.1c-0.6-2.4-1.9-3.5-4-3.2c-1.5,0.2-2.8,0.9-4,1.8
				l-3.7-3.9c2.4-1.9,4.8-3,7-3.3c2.9-0.4,5.4,0.2,7.4,1.9c1.8,1.6,3,3.9,3.5,6.9c0.2,1.2,0.4,2.3,0.5,3.4l0.5,3.5
				c0.2,1.2,0.4,3.1,0.8,5.9C57.1,96,57.2,96.9,57.4,97.5z M49.5,86.8c-0.7-0.1-1.5-0.1-2.1,0c-1.5,0.2-2.6,0.8-3.3,1.7
				c-0.9,1-1.2,2-1,3.1c0.2,1.1,0.7,1.8,1.5,2.2c0.7,0.3,1.6,0.5,2.6,0.3s2-0.7,3.1-1.6L49.5,86.8z"/>
			<path class="st11" d="M75.4,78.9c0.2,0.9,0.3,2.4,0.6,4.8c0.2,1.8,0.7,5.6,1.5,11.2L71,95.8c-0.1-1.5-0.3-4.2-0.7-8.3
				c-0.2-1.9-0.5-4.5-0.9-7.7c-0.2-1.3-0.5-2.4-1-3.2c-0.7-1.1-1.6-1.5-2.8-1.4c-1,0.2-1.8,0.6-2.6,1.2l0.9,7.7
				c0.2,2,0.8,6.2,1.8,12.6l-7,0.8l-2.4-25.7l6.1-0.6c1-0.7,2-1.2,3-1.4c2.5-0.3,4.7,0.1,6.5,1.5C73.7,73.2,74.8,75.6,75.4,78.9z"/>
			<path class="st11" d="M92.9,68.7c0.1,1-0.3,2.4-1.2,4.4l-6.9,15.2c4.9-0.7,8.2-1.4,9.8-2l0.3,5.7c-1.4,0.6-3.5,1-6.1,1.4l-6,0.9
				c-3,0.5-4.5-0.3-4.8-2.1c-0.2-1.2,0.3-3,1.4-5.2c1.8-3.4,4-8.2,6.6-14.4l-4.3,0.6c-1.5,0.2-3.1,0.5-4.7,0.8l-1.1-5.5L88,66.7
				C90.9,66.2,92.6,66.9,92.9,68.7z"/>
			<path class="st11" d="M107.8,58.6c0,0.9-0.3,1.8-0.9,2.6c-0.6,0.7-1.4,1.2-2.3,1.3c-1,0.1-1.9-0.1-2.7-0.6
				c-0.9-0.5-1.4-1.2-1.5-2.2c-0.2-1,0.1-1.9,0.7-2.6s1.4-1.1,2.5-1.3c1-0.1,1.8,0.1,2.6,0.6C107.1,56.9,107.6,57.6,107.8,58.6z
				 M108.1,65.2l1.7,13.7c0.2,1.4,0.7,5.1,1.6,11.1l-7.7,0.8l-1.9-25.1L108.1,65.2z"/>
			<path class="st11" d="M135.1,70.2c0.2,0.9,0.3,2.4,0.6,4.8c0.2,1.8,0.7,5.6,1.5,11.2l-6.6,0.9c-0.1-1.5-0.3-4.2-0.7-8.3
				c-0.2-1.9-0.5-4.5-0.9-7.7c-0.2-1.3-0.5-2.4-1-3.2c-0.7-1.1-1.6-1.5-2.8-1.4c-1,0.2-1.8,0.6-2.6,1.2l0.9,7.7
				c0.2,2,0.8,6.2,1.8,12.6l-7,0.8L116,63l6.1-0.6c1-0.7,2-1.2,3-1.4c2.5-0.3,4.7,0.1,6.5,1.5C133.4,64.4,134.6,66.9,135.1,70.2z"/>
			<path class="st11" d="M156.4,76.8c-3,4.8-6,7.5-9,7.9c-3,0.5-5.6-0.5-7.8-2.8c-1.9-2-3.1-4.8-3.6-8.5c-0.6-4-0.2-7.5,1.2-10.2
				c1.5-2.7,3.7-4.4,6.9-4.8c3.1-0.5,5.6,0.5,7.7,2.8c1.8,2.1,3.1,5.4,3.9,9.8c-0.9,0-2,0.1-3.3,0.3c-3.1,0.5-6.5,1-10.2,1.8
				c0.3,1.6,0.7,3,1.5,4.2c1,1.6,2.2,2.4,3.5,2.2c1.1-0.2,2-1,2.7-2.6c0.6-1.4,1-2.7,1-4L156.4,76.8z M148.4,66.7
				c-0.2-1.1-0.7-1.9-1.4-2.5c-0.6-0.6-1.4-0.7-2.4-0.6c-1.2,0.2-2.1,1.1-2.7,2.7c-0.1,0.4-0.2,0.9-0.2,1.3L148.4,66.7z"/>
		</g>
	</g>
</g>
</svg>
