<?xml version="1.0" encoding="utf-8"?>
<!-- Generator: Adobe Illustrator 23.0.1, SVG Export Plug-In . SVG Version: 6.00 Build 0)  -->
<svg version="1.1" id="Capa_1" xmlns="http://www.w3.org/2000/svg" xmlns:xlink="http://www.w3.org/1999/xlink" x="0px" y="0px"
	 viewBox="0 0 380.1 161.2" style="enable-background:new 0 0 380.1 161.2;" xml:space="preserve">
<style type="text/css">
	.st0{fill-rule:evenodd;clip-rule:evenodd;fill:#FAD50A;}
	.st1{fill-rule:evenodd;clip-rule:evenodd;fill:#D40203;}
	.st2{fill-rule:evenodd;clip-rule:evenodd;fill:#B10101;}
	.st3{fill-rule:evenodd;clip-rule:evenodd;fill:#570807;}
	.st4{fill-rule:evenodd;clip-rule:evenodd;fill:#740203;}
	.st5{fill-rule:evenodd;clip-rule:evenodd;fill:#C99704;}
	.st6{fill-rule:evenodd;clip-rule:evenodd;fill:#D7AD04;}
	.st7{fill-rule:evenodd;clip-rule:evenodd;fill:#B98806;}
	.st8{fill:#A60401;stroke:#FFC317;stroke-width:19;stroke-miterlimit:10;}
	.st9{fill:#FFC317;stroke:#FFFFFF;stroke-width:9;stroke-miterlimit:10;}
	.st10{fill:#A60401;}
</style>
<g>
	<path class="st0" d="M190,26.2c-10.6,3.1-18.5,9.6-21,20.8c-1.9-2.3-2.6-4.1-4.9-5.8c-1.9-1.4-3.8-3-6.7-4
		c-4-1.4-14.1-2.7-17.2,0.2c-2.9,1-5.8,3-7.4,4.5c-1.4,1.2-3.5,4.4-4.7,6.8c-5.4,11.1-1.4,14-2.3,18.8l-6.8-0.1
		c-2.1,0.5-3.6,1-5.3,1.9c-1.8,1-2.5,1.4-3.5,3.1c-1-0.7-0.5,0.7-0.8-0.5c-0.1,1.7-2.4,4-3.3,6.6c-1.1,2.9-1,5.8-0.9,9.1
		c2.4,7.7,4.5,9.3,10.5,12.8l0.2,2.2c1.1,3.9,4,8.2,7,9.6c3.8,1.4,5.5,2.7,10.4,2c3.3-0.4,6.6-2.2,8.2-3.8c4.2,5.7,10.1,6.1,14.4,0
		c3.8,4.2,7.2,10.5,18,10.4c9.9-0.1,13.8-5.4,18-11l2.6,3.6c1.1,1.4,1.9,1.9,3.1,3.4c1.1,0.5,1.3,0.7,2.2,1.5
		c7.4,3.3,14.2,5,22.4-0.8c5.5-3.9,9.3-10.3,8.2-20.4c5.2,0.9,7.5,1.2,11.5-1.9c2.9-2.3,4.4-6.2,3.9-11.6c5.2-3.3,7.9-12,5.1-19.1
		c-0.4-1.1-1-2.1-1.5-3c-1-1.4-1.3-1.3-1.7-2.8c-0.3-0.4-0.1-0.1-0.6-0.6c-0.1-0.1-0.4-0.3-0.4-0.4c-0.4-0.3-0.2,0-0.8-0.6l-2.4-1.4
		c-4.1-1.4-6.4-2.8-11.6-1.8c-4,0.8-6.6,2.7-8.8,4.4c0.2-6,0.8-8.9-1.3-14.5C216.9,31,204.9,24.1,190,26.2L190,26.2z"/>
	<path class="st1" d="M109.3,71.8c0.3,1.2-0.2-0.2,0.8,0.5c1.1-1.7,1.7-2.1,3.5-3.1c1.7-0.9,3.2-1.5,5.3-1.9l8.7,0.1
		c-2-7-2.8-11.9,0.5-18.8c1.1-2.4,3.3-5.6,4.7-6.8c1.7-1.5,4.6-3.4,7.4-4.5l-2.4-1.1l0.2-0.1l0.6-0.2c1.8-0.4-0.8,0.8,0.8-0.2
		l-0.4-0.4c-0.1,0-0.2-0.1-0.2-0.2l-1.5-1.1c0.1-0.1,0.2-0.2,0.2-0.2l1.8-1c0.7,0.1,0.7,1.2,0.5-0.9c-0.4-2.9,0.2-1,4.9-1.8l7.7-1.6
		c1.5-0.1,1.3-0.9,3.6-1.8s5.3-3.1,6.8-5.2c2.1-3.1,1.7-1.6,2-1.4c0.9-1.7-0.4,0.5,0.1-0.9c0.4-1.2-0.6,0.6,0.4-0.5l2.9-6.5
		c0.6,2.9,2.3,3.8,4,5.2c1.5,1.3,1.9,2.3,3.8,3.2l12.6,4.8c2.9,0.7,1.3,0.2,1.6-0.1L190,26c14.9-2,26.9,4.8,31.7,17.4
		c2.1,5.6,1.5,8.6,1.3,14.5c2.2-1.8,4.8-3.7,8.8-4.4c5.2-1,7.5,0.4,11.6,1.8c1.1-4.2,1.6-5,3.7-8.2c2.9-4.3,5.7-4.7,5.4-6
		c-13.2,4.5-31.4,0.5-34.8-13.7c-1.6-6.7,0.7-9.2,2.3-14.2l-1.8-2c-0.5,0.4-0.4,0.3-0.8,0.8c-1.4,1.6-1.8,2.8-4.2,4.9
		c-2.1,1.8-3.4,2.9-6.4,4.2c-11.7,5.4-31.1,2.7-36.6-10.3c-0.7-1.6-0.8-2.5-1.3-4.1c-0.8-2.4-1.1-1.1-2.1-2.7
		c-0.1,7,0.3,9.6-3.7,14.6c-2.5,3.3-6.1,6.3-11.6,8.1c-12.8,4.2-22,0.7-30.7-5c1.9,3.4,5.4,6.3,5.2,13.5c-0.2,5.9-2.7,9-6,12.6
		c-7.1,7.6-17.6,8.3-29.8,6.5c1.6,2.9,2.3,2.1,5.7,3.4C102.3,60.4,107.8,64.1,109.3,71.8L109.3,71.8z"/>
	<path class="st2" d="M212.9,142.9c-0.2-3.9-1.6-6.1-0.2-10.8c1.1-3.6,2.1-5.3,4.1-8.3c-3.8,0.5-3.7,1.8-9.2,0l-2.3-1.1
		c-1.9-1.2-1.4-0.4-4-2.1c-0.1,0-0.2-0.1-0.2-0.2c-0.1,0-0.2-0.1-0.3-0.2l-1.4-0.7c0.4-0.8,0.1,0,0.2-1.3c-0.8-0.8-1-1-2.2-1.5h-1.2
		c-1.1-0.3-0.2-0.2-1.5-0.5c-0.1,0.1-0.2,0.2-0.2,0.3c-1.2,1.8-0.7,1.9-2.9,2.1c0.9,1.4-3.6,3.3-4.6,3.8l-5.6,2.1
		c-0.1,0-0.2,0-0.2,0.1l-0.5,0.1c-1.8,0.4-3.4,0.3-5,0l-4.3-0.8c-0.6-0.3-0.7,0.2-1.5-0.2c-1.8-0.7-4.6-3.3-6.3-3.4
		c-1.6,0-0.2-0.5-0.8,0.4c-0.3-0.6,0.7-0.4-0.5-0.8c-2.7-0.9,1.9-0.3-0.8,0.3c0.5-1,0.4,1.4,0-0.8l-0.4-2l-1.3,0.5
		c-0.1,0-0.2,0-0.3,0c-1.8,0.4-0.6,0.4-1.8,1.3c-0.9,0.7,1.1-0.2-0.8,0.2l-2.6,0.7c-1,0-2.1-0.7-2.7,0.2c-0.2-0.4,0.2-0.6-0.4-0.9
		l-0.8-0.3c0,0-0.1,0-0.1-0.1h-0.1c-3.4-0.7-2.7-1.5-4.3-1.6l-1.7,0.2H144l-1.1,0.5c-0.1,0-0.3,0.1-0.4,0.1l-4.3,1.1
		c-0.7,0.2-1.1,0.1-1.5,0.7l-0.3-0.9c0-0.1-0.1-0.2-0.1-0.2c-1,0.9-0.8,0.4-1.2,1.5c-0.4-0.3,0-0.2-0.8-0.5
		c-1.1-0.4-1.6-0.6-2.1,0.4c0.3-0.6,0.8,0.6,0-0.9c-0.6-1.1,0.8,0.1-0.6-0.6c-2.3-1.1-0.6-0.3-1.5,0.3c0.2-0.9,1,0.5-0.2-1
		c-0.7-0.9-2.3-1.4-3.1-1.9c-2.3-1.4-1.1-1.9-2.5-2.8h-0.9c0.8,9.8-2.6,13.8-7.7,18.2l1.6,2.3c2.4-0.6,14.3-11.8,32-5.5
		c8.1,2.9,13.4,7.8,13.8,16.3c0.1,1.9-0.3,2.9-0.3,4.5c-0.1,2,0.7,2.2,1.6,3.2c0.5-0.5,0.2-0.1,0.6-0.8c0.8-1.5,0.5-2.4,2.7-5.9
		c1.4-2.1,2.9-3.4,4.5-4.9c6.9-6.5,19.9-8.3,29.2-5.2C209.2,138.3,211.4,142.1,212.9,142.9L212.9,142.9z"/>
	<path class="st3" d="M199.6,118.1c-0.1,1.4,0.1,0.5-0.2,1.3l1.4,0.7c0.1,0.1,0.2,0.1,0.3,0.2c0.1,0,0.2,0.1,0.2,0.2
		c2.5,1.7,2,1,4,2.1l2.3,1.1c5.5,1.8,5.4,0.5,9.2,0c-2,3.1-3,4.8-4.1,8.3c-1.4,4.7-0.1,6.9,0.2,10.8c0.3,1.7,1,3,2.8,4.1
		c-1.4-6.3-2.9-9.5,0.2-15.9c4.1-8.5,15.4-13.6,25-13.5c2.8,0,5.8,0.5,8.3,1.2s4.6,2,6.7,2.6c-1-1.3-3-3.2-4.7-3.5
		c-7.8-1.9-9.8-3.2-18.7-2c-0.1,0-1.3,0.1-1.4,0.1l-1.2-0.3l1.4-1.2c0.1,0,0.2-0.1,0.2-0.2c0,0,0.2-0.1,0.2-0.2c0.8-0.7,1-2,1.3-3
		c1.3-5.2,1.6-1.4,1.2-5.7c-0.4-4.2,1.7-4.7,1.8-4.6c0,0.1,0.2-0.1,0.3-0.1c0.5-0.1,0.2-0.1,0.9-0.1c0.9,0,0.6,0.3,1.9,0
		c2.7-0.6,0.6-0.9,2.7-1.6c0.1,2.3,0.6,6,1.2,7.7c0.7,2,0.9,2.7,2.2,4.3l1.3,1.4c-1.5-4.4-3.3-7.2-1.8-12.7
		c3.3-11.7,14-17.4,27.4-17.5c-1.7-3.6-3-1.6-9.5-3.2c-3.2-0.8-6.3-1.9-8.3-3.8c2.2-6.7-2.9-14.5-6.6-16.9c0.5,1.5,0.7,1.4,1.7,2.8
		c0.6,0.8,1.1,1.9,1.5,3c2.8,7.1,0.1,15.8-5.1,19.1c0.5,5.4-1,9.3-3.9,11.6c-4,3.1-6.4,2.8-11.5,1.9c1.1,10.1-2.7,16.5-8.2,20.4
		C213.9,123.1,207,121.4,199.6,118.1L199.6,118.1z"/>
	<path class="st2" d="M140.2,37.3c3.1-2.9,13.2-1.6,17.2-0.2c2.8,1,4.8,2.6,6.7,4c2.3,1.7,3,3.5,4.9,5.8c2.5-11.1,10.4-17.7,21-20.8
		l0.2-0.7c-0.3,0.3,1.3,0.8-1.6,0.1L176,20.7c-1.9-0.9-2.2-1.9-3.8-3.2c-1.6-1.4-3.3-2.3-4-5.2l-2.9,6.5c-1,1.1-0.1-0.7-0.4,0.5
		c-0.5,1.4,0.8-0.7-0.1,0.9c-0.3-0.2,0.2-1.6-2,1.4c-1.5,2.1-4.5,4.3-6.8,5.2c-2.3,0.9-2.1,1.6-3.6,1.8l-7.7,1.6
		c-4.8,0.8-5.3-1-4.9,1.8c0.3,2.1,0.3,1-0.5,0.9l-1.8,1c-0.1,0.1-0.1,0.2-0.2,0.2l1.5,1.1c0.1,0,0.2,0.1,0.2,0.2l0.4,0.4
		c-1.6,1,1-0.2-0.8,0.2l-0.6,0.2c0,0-0.1,0-0.2,0.1L140.2,37.3z"/>
	<path class="st4" d="M122.8,112l0.5,1.5h0.9c1.4,0.9,0.2,1.4,2.5,2.8c0.8,0.5,2.4,1,3.1,1.9c1.2,1.5,0.4,0.1,0.2,1
		c0.9-0.6-0.8-1.5,1.5-0.3c1.4,0.7,0-0.5,0.6,0.6c0.8,1.5,0.3,0.3,0,0.9c0.5-1,0.9-0.8,2.1-0.4c0.7,0.3,0.4,0.2,0.8,0.5
		c0.4-1.1,0.2-0.5,1.2-1.5c0,0.1,0.1,0.1,0.1,0.2l0.3,0.9c0.4-0.6,0.8-0.5,1.5-0.7l4.3-1.1c0.1,0,0.4-0.1,0.4-0.1l1.1-0.5h0.2
		l1.7-0.2c1.6,0.2,0.9,0.9,4.3,1.6h0.1l0.1,0.1l0.8,0.3c0.6,0.3,0.2,0.5,0.4,0.9c0.7-0.9,1.7-0.2,2.7-0.2l2.6-0.7
		c1.9-0.4-0.1,0.5,0.8-0.2c1.2-0.9,0-0.9,1.8-1.3c0.1,0,0.2,0,0.3,0l1.3-0.5l0.4,2c0.3,2.2,0.5-0.2,0,0.8c2.7-0.5-1.9-1.1,0.8-0.3
		c1.3,0.4,0.2,0.2,0.5,0.8c0.6-0.9-0.9-0.4,0.8-0.4c1.8,0,4.5,2.7,6.3,3.4c0.8,0.3,0.9-0.1,1.5,0.2l4.3,0.8c1.7,0.2,3.2,0.4,5,0
		l0.5-0.1c0.1,0,0.2,0,0.2-0.1l5.6-2.1c1-0.6,5.6-2.4,4.6-3.8c2.2-0.2,1.7-0.3,2.9-2.1c0-0.1,0.1-0.2,0.2-0.3
		c1.3,0.3,0.4,0.2,1.5,0.5h1.2c-1.2-1.5-1.9-2-3.1-3.4l-2.6-3.6c-4.2,5.7-8,11-18,11c-10.8,0.1-14.2-6.2-18-10.4
		c-4.3,6.1-10.2,5.7-14.4,0c-1.6,1.6-4.9,3.3-8.2,3.8C128.3,114.7,126.6,113.4,122.8,112L122.8,112z"/>
	<path class="st2" d="M251.1,118l-4.8-5.4l-1.3-1.4c-1.3-1.6-1.5-2.3-2.2-4.3c-0.6-1.7-1.1-5.4-1.2-7.7c-2.1,0.6-0.1,1-2.7,1.6
		c-1.3,0.3-1,0-1.9,0c-0.7,0-0.4,0-0.9,0.1c-0.1,0-0.3,0.2-0.3,0.1c-0.1-0.1-2.2,0.4-1.8,4.6c0.4,4.3,0.1,0.5-1.2,5.7
		c-0.3,1-0.5,2.3-1.3,3c0,0-0.2,0.1-0.2,0.2c-0.1,0-0.2,0.1-0.2,0.2l-1.4,1.2l1.2,0.3c0.1,0,1.3-0.1,1.4-0.1
		C241.3,114.8,243.3,116.1,251.1,118L251.1,118z"/>
	<path class="st2" d="M115.8,102.4l-0.2-2.2c-6-3.5-8.1-5.1-10.5-12.8c-4.3,3.5-5.4,5.2-11.7,7.3c-1.3,0.4-3.6,0.8-4.6,1.5l1.6,2
		c5.2-0.5,8.7-1.2,14.1-0.2C110.1,99,111.9,100.8,115.8,102.4L115.8,102.4z"/>
	<path class="st5" d="M111.9,114.8c1.2-0.8,2.5-1.1,2.5-2.7c-1.7-0.1-14.9,7.7-18.5,9.5c-1.5,0.8-1.5,0.4-2,1.8
		c1.3,0.7,2.6,0.4,4.4,0.4l-1.2,1c-0.3,0.2-0.8,0.5-1.2,0.8l-6.9,4.7c0.6,1.6,0.8,1.5,1.8,2.7c2-0.7,6.5-4.3,8.4-5.7
		c1.4-1,2.7-1.9,4-2.9c2.8-2.1,3-1.5,3.4-3.4c-1.3-0.6-2.8-0.1-4.7-0.1L111.9,114.8z"/>
	<path class="st5" d="M243.8,28c0.3-1.7,1-2.4,1.3-4.5c-2.4,0.5-7.6,6.3-11.3,9.1c-1.3,1-1.1,0.4-1.3,2.3c2.2-0.1,4.6-2.7,7.1-4.5
		c-0.6,1.9-1.3,2.6-1.6,4.6c4.2-0.9,13.3-9.2,17-10.2c-0.4-2.3-0.5-2.2-1.9-3.4C251.6,22,245.1,26.9,243.8,28L243.8,28z"/>
	<path class="st6" d="M95,29.8c1.3,1,2.9,2.2,4.5,3.2c2.7,1.7,11.5,9.1,14.4,9.2c-0.3-3.3-1.1-1.3-3.8-4.4c-1.6-1.8-1.5-1-4-3.7
		c-0.7-0.8-1.2-1-2.1-1.6c-1.1-0.8-0.8-1.1-4.1-3.6c-1.3-1-1-1.1-1.9-2.1C95.7,27.2,95.5,28.1,95,29.8L95,29.8z"/>
	<path class="st5" d="M232.4,136c-3.9-3.6-1.4-3.4-4.5-3.7c0.1,2.3,1.8,3.8,2.9,5.2l9.4,13.7c1.8-0.6,2.3-0.8,3.2-2.5
		c-1.4-2.5-3.9-4.5-5.7-6.6c-0.6-0.7-0.9-1.5-1.6-2.2c-0.9-1-1.1-0.8-2.1-2C233.4,137.2,233.3,136.7,232.4,136L232.4,136z"/>
	<path class="st5" d="M102.5,76.2c-0.4-1.6-1.6-1.6-3.7-2l-11.6-2.8c-1.7-0.2-1.1-0.5-1.6,0.5c-0.7,1.2-0.6,4.2,0.7,4.6
		C86.4,76.5,101.1,77.5,102.5,76.2L102.5,76.2z"/>
	<path class="st3" d="M252.4,41.3c0.3,1.4-2.5,1.7-5.4,6c-2.1,3.1-2.6,4-3.7,8.2l2.4,1.4c1.7-9,8.2-11.6,12.6-14.9l-1.5-2.1
		L252.4,41.3z"/>
	<path class="st5" d="M138.5,5.3c0.2,1.5,7.5,16.2,7.9,16.7c0.6,0.8,0.2,0.6,1.3,0.8c0.7-1.6-4.6-16.3-5.7-18.8
		C140.4,4.1,139.7,4.4,138.5,5.3L138.5,5.3z"/>
	<path class="st6" d="M237.9,130.9c-1.9-0.7-5.2-2.6-6.9-1.7c-0.1,1.7,10.3,8.4,11.7,8.5l0.8-1l0.4-0.8c0.6-1.2,0.5-0.9,0.6-2.2
		C243.3,132.6,239.7,131.5,237.9,130.9L237.9,130.9z"/>
	<path class="st5" d="M92.6,111.1c2.1,0.6,7.4-0.5,9.8-0.8c1.6-0.2,3.2-0.4,4.8-0.6c4.8-0.5,3.5-0.2,4-1.3c-0.9-0.8-2.2-0.6-4.4-0.6
		c-1.6,0-3.3,0-4.9-0.1c-2.6,0-6.8-0.3-9.4,0L92.6,111.1z"/>
	<path class="st5" d="M252.9,100c-0.1-0.1-0.2,0.1-0.3,0.2c0.4,0.4-0.4,0.5,1.4,1.3c2.2,1,11.3,3.7,12.9,3.8
		c0.4-1.8,1.1-2.1,0.9-4.2c-1.9-0.7-5.3-0.9-7.6-1.1L252.9,100z"/>
	<path class="st7" d="M188.1,141.8c-0.6,0.6-0.3-0.1-0.6,0.9s1,13.8,1.1,14.7c1.5,0.7,2.6,0.2,3.7-0.5c0.2-2.1-1.9-8.6-2.7-12
		C189.3,143.7,189,142.6,188.1,141.8L188.1,141.8z"/>
	<path class="st6" d="M260.1,61.1c-1.3,0.9-1.3,0.6-1.7,2c2.1,1.9,1.4-0.7,3.4,2.2l1.1,1.1c0.8-0.6,0.2,0,0.9-0.9
		c1.5-2.1-0.1-1,3.6-2.1c-0.1-1.6-0.4-1.6-1.6-2.4c0-1.9,0.5-1.4-0.2-3.1c-1.5,0.1-1.7,0.9-2.7,0.8c-1.3-0.1-0.8-0.9-2.7-0.8
		L260.1,61.1z"/>
	<path class="st5" d="M139.6,152.5c0.7-2.3,1.6-4.8,2.5-7.3c0.4-1.2,0.8-2.4,1.3-3.6c1.8-4.9,0.7-3.1,0.2-3.7
		c-1,0.6-1.8,2.2-2.4,3.3c-1.4,2.6-5,8-5.2,10.3C137.8,151.9,137.7,152.4,139.6,152.5L139.6,152.5z"/>
	<path class="st7" d="M229.6,30.7c1.7-0.3,0.8,0.4,1.7-1c1.4-2.2,5.8-10.5,6-12l-3.5-1.1C233,19.5,229.6,28.1,229.6,30.7L229.6,30.7
		z"/>
	<path class="st5" d="M194.8,3c-0.8,1.9-1.3,4.6-1.8,6.8c-0.4,2-2.1,5.7-0.8,7.2c1.3-0.6,1.1-1.1,1.8-2.7c1-2,4.2-8.9,4.3-10.3
		C197.1,3.1,196,2.8,194.8,3L194.8,3z"/>
	<path class="st0" d="M98.2,39.5c-4.1,2-1,7.6,2.8,5.5C104,43.3,102.1,37.6,98.2,39.5L98.2,39.5z"/>
	<path class="st6" d="M200.2,147c0.7-2.5,0.3-6-3.3-4.7c-1,0.3-1.9,1.4-1.9,2.8c0,1.3,0.8,1.7,1.4,2.5
		C198.2,147.8,198.9,147.5,200.2,147L200.2,147z"/>
	<path class="st6" d="M132.3,141.8c-0.9-2.8-0.9-1.2-0.3-4.3c-3.4,0.7-1.6,0.3-3.9-0.5c-1.9,4.7-0.6,0.9-1.9,3.2
		c3.9,3.1,0.8,1,2.7,2.8C130.8,141.8,129.4,141.8,132.3,141.8L132.3,141.8z"/>
	<path class="st0" d="M186.5,9.6c-1.2-0.7-1.4-1.4-3.2-0.9c-1.3,0.4-2,1.7-1.3,3.4S187.3,14.9,186.5,9.6L186.5,9.6z"/>
	<path class="st6" d="M128.3,16.2c2.1,0.2,1.8-0.3,2.2,1.7c2.4-1.2,0.7-1.5,3.3-1.9c-0.8-2.2-1.1-0.3-1-3.3
		c-2.4-0.1,0.5,0.5-3.6-0.1L128.3,16.2z"/>
</g>
<g>
	<g>
		<path class="st8" d="M93.8,55l1.5,10.7l-21.6,4.4l1.5,13.2l20.5-3L97,90.8l-16.2,2.4c-0.3,0-1.7,0.3-4.3,0.9
			c0.7,5.6,1.4,11.2,2.2,16.9c0.5,3.5,1.2,6.1,2,8l-13.9,1.8L61,73c-0.4-3.2-0.8-7.4-1.3-12.4L93.8,55z"/>
		<path class="st8" d="M135.7,110.2l-11.5,1.2l-0.1-0.6c-1.7,1.2-3.5,2-5.2,2.4c-4.6,0.5-8.7-0.2-12.3-2.2c-3.9-2.2-6.2-5.5-6.8-9.9
			c-0.8-5.6,1-10.3,5.4-14.2c2.9-2.6,6.7-4.2,11.3-4.8c1.2-0.2,2.6-0.2,4.3-0.1c-1.1-4.3-3.4-6.1-7-5.6c-2.6,0.4-4.9,1.5-7.1,3.2
			l-6.6-6.9c4.3-3.4,8.4-5.3,12.3-5.9c5.1-0.7,9.5,0.4,13,3.4c3.2,2.8,5.3,6.9,6.2,12.1c0.4,2.1,0.7,4.1,0.9,6l0.8,6.2
			c0.3,2.1,0.7,5.5,1.4,10.4C135.1,107.4,135.4,109.1,135.7,110.2z M121.8,91.3c-1.3-0.2-2.6-0.2-3.7,0c-2.6,0.4-4.6,1.4-5.9,3
			c-1.5,1.8-2.1,3.6-1.8,5.4c0.3,1.9,1.2,3.2,2.6,3.9c1.3,0.6,2.8,0.8,4.6,0.5c1.8-0.3,3.6-1.2,5.4-2.9L121.8,91.3z"/>
		<path class="st8" d="M167.4,77.4c0.3,1.5,0.6,4.3,1.1,8.4c0.4,3.2,1.3,9.8,2.7,19.8l-11.6,1.5c-0.1-2.6-0.5-7.4-1.3-14.6
			c-0.3-3.4-0.8-7.9-1.5-13.6c-0.3-2.3-0.9-4.2-1.8-5.7c-1.2-1.9-2.9-2.7-4.9-2.4c-1.7,0.3-3.2,1-4.5,2.1l1.6,13.5
			c0.4,3.5,1.4,10.9,3.1,22.2L138,110l-4.2-45.2l10.7-1c1.7-1.3,3.5-2.1,5.3-2.4c4.4-0.6,8.2,0.2,11.4,2.7
			C164.4,67.3,166.4,71.6,167.4,77.4z"/>
		<path class="st8" d="M198.2,59.4c0.1,1.8-0.6,4.3-2.1,7.7l-12.2,26.7c8.7-1.3,14.5-2.5,17.3-3.6l0.6,10.1c-2.5,1-6.1,1.8-10.7,2.5
			l-10.6,1.5c-5.2,0.8-8-0.5-8.5-3.7c-0.3-2.2,0.5-5.2,2.5-9.2c3.1-6,7-14.5,11.7-25.4l-7.5,1.1c-2.6,0.4-5.4,0.8-8.2,1.4l-1.9-9.6
			l20.9-3.1C194.6,55,197.6,56.2,198.2,59.4z"/>
		<path class="st8" d="M224.5,41.6c0,1.6-0.5,3.1-1.5,4.5c-1.1,1.3-2.5,2.1-4,2.3c-1.7,0.2-3.3-0.2-4.8-1c-1.5-0.9-2.4-2.2-2.6-3.9
			c-0.3-1.8,0.2-3.3,1.3-4.6s2.5-2,4.4-2.3c1.7-0.2,3.2,0.1,4.6,1.1C223.2,38.6,224.1,39.9,224.5,41.6z M225,53.2l3,24.2
			c0.3,2.4,1.2,8.9,2.8,19.6l-13.5,1.4L214,54.2L225,53.2z"/>
		<path class="st8" d="M272.5,62c0.3,1.5,0.6,4.3,1.1,8.4c0.4,3.2,1.3,9.8,2.7,19.8l-11.6,1.5c-0.1-2.6-0.5-7.4-1.3-14.6
			c-0.3-3.4-0.8-7.9-1.5-13.6c-0.3-2.3-0.9-4.2-1.8-5.7c-1.2-1.9-2.9-2.7-4.9-2.4c-1.7,0.3-3.2,1-4.5,2.1l1.6,13.5
			c0.4,3.5,1.4,10.9,3.1,22.2l-12.3,1.4l-4.2-45.1l10.7-1c1.7-1.3,3.5-2.1,5.3-2.4c4.4-0.6,8.2,0.2,11.4,2.7
			C269.6,51.9,271.6,56.3,272.5,62z"/>
		<path class="st8" d="M310,73.6c-5.3,8.5-10.6,13.2-15.8,14c-5.3,0.8-9.9-0.8-13.8-4.9c-3.4-3.6-5.5-8.5-6.4-14.9
			c-1-7.1-0.3-13.2,2.2-18c2.6-4.8,6.6-7.7,12.1-8.5c5.4-0.8,9.9,0.9,13.5,5c3.2,3.7,5.5,9.5,6.8,17.3c-1.6,0-3.6,0.2-5.9,0.6
			c-5.4,0.8-11.4,1.8-18,3.1c0.5,2.8,1.3,5.3,2.6,7.4c1.7,2.9,3.8,4.2,6.2,3.8c2-0.3,3.6-1.8,4.8-4.5c1.1-2.4,1.7-4.8,1.8-7.1
			L310,73.6z M296,55.9c-0.4-1.9-1.2-3.3-2.4-4.4c-1.1-1-2.5-1.3-4.2-1.1c-2.1,0.3-3.7,1.9-4.8,4.8c-0.2,0.7-0.4,1.5-0.4,2.3
			L296,55.9z"/>
	</g>
</g>
<g>
	<g>
		<path class="st9" d="M93.8,55l1.5,10.7l-21.6,4.4l1.5,13.2l20.5-3L97,90.8l-16.2,2.4c-0.3,0-1.7,0.3-4.3,0.9
			c0.7,5.6,1.4,11.2,2.2,16.9c0.5,3.5,1.2,6.1,2,8l-13.9,1.8L61,73c-0.4-3.2-0.8-7.4-1.3-12.4L93.8,55z"/>
		<path class="st9" d="M135.7,110.2l-11.5,1.2l-0.1-0.6c-1.7,1.2-3.5,2-5.2,2.4c-4.6,0.5-8.7-0.2-12.3-2.2c-3.9-2.2-6.2-5.5-6.8-9.9
			c-0.8-5.6,1-10.3,5.4-14.2c2.9-2.6,6.7-4.2,11.3-4.8c1.2-0.2,2.6-0.2,4.3-0.1c-1.1-4.3-3.4-6.1-7-5.6c-2.6,0.4-4.9,1.5-7.1,3.2
			l-6.6-6.9c4.3-3.4,8.4-5.3,12.3-5.9c5.1-0.7,9.5,0.4,13,3.4c3.2,2.8,5.3,6.9,6.2,12.1c0.4,2.1,0.7,4.1,0.9,6l0.8,6.2
			c0.3,2.1,0.7,5.5,1.4,10.4C135.1,107.4,135.4,109.1,135.7,110.2z M121.8,91.3c-1.3-0.2-2.6-0.2-3.7,0c-2.6,0.4-4.6,1.4-5.9,3
			c-1.5,1.8-2.1,3.6-1.8,5.4c0.3,1.9,1.2,3.2,2.6,3.9c1.3,0.6,2.8,0.8,4.6,0.5c1.8-0.3,3.6-1.2,5.4-2.9L121.8,91.3z"/>
		<path class="st9" d="M167.4,77.4c0.3,1.5,0.6,4.3,1.1,8.4c0.4,3.2,1.3,9.8,2.7,19.8l-11.6,1.5c-0.1-2.6-0.5-7.4-1.3-14.6
			c-0.3-3.4-0.8-7.9-1.5-13.6c-0.3-2.3-0.9-4.2-1.8-5.7c-1.2-1.9-2.9-2.7-4.9-2.4c-1.7,0.3-3.2,1-4.5,2.1l1.6,13.5
			c0.4,3.5,1.4,10.9,3.1,22.2L138,110l-4.2-45.2l10.7-1c1.7-1.3,3.5-2.1,5.3-2.4c4.4-0.6,8.2,0.2,11.4,2.7
			C164.4,67.3,166.4,71.6,167.4,77.4z"/>
		<path class="st9" d="M198.2,59.4c0.1,1.8-0.6,4.3-2.1,7.7l-12.2,26.7c8.7-1.3,14.5-2.5,17.3-3.6l0.6,10.1c-2.5,1-6.1,1.8-10.7,2.5
			l-10.6,1.5c-5.2,0.8-8-0.5-8.5-3.7c-0.3-2.2,0.5-5.2,2.5-9.2c3.1-6,7-14.5,11.7-25.4l-7.5,1.1c-2.6,0.4-5.4,0.8-8.2,1.4l-1.9-9.6
			l20.9-3.1C194.6,55,197.6,56.2,198.2,59.4z"/>
		<path class="st9" d="M224.5,41.6c0,1.6-0.5,3.1-1.5,4.5c-1.1,1.3-2.5,2.1-4,2.3c-1.7,0.2-3.3-0.2-4.8-1c-1.5-0.9-2.4-2.2-2.6-3.9
			c-0.3-1.8,0.2-3.3,1.3-4.6s2.5-2,4.4-2.3c1.7-0.2,3.2,0.1,4.6,1.1C223.2,38.6,224.1,39.9,224.5,41.6z M225,53.2l3,24.2
			c0.3,2.4,1.2,8.9,2.8,19.6l-13.5,1.4L214,54.2L225,53.2z"/>
		<path class="st9" d="M272.5,62c0.3,1.5,0.6,4.3,1.1,8.4c0.4,3.2,1.3,9.8,2.7,19.8l-11.6,1.5c-0.1-2.6-0.5-7.4-1.3-14.6
			c-0.3-3.4-0.8-7.9-1.5-13.6c-0.3-2.3-0.9-4.2-1.8-5.7c-1.2-1.9-2.9-2.7-4.9-2.4c-1.7,0.3-3.2,1-4.5,2.1l1.6,13.5
			c0.4,3.5,1.4,10.9,3.1,22.2l-12.3,1.4l-4.2-45.1l10.7-1c1.7-1.3,3.5-2.1,5.3-2.4c4.4-0.6,8.2,0.2,11.4,2.7
			C269.6,51.9,271.6,56.3,272.5,62z"/>
		<path class="st9" d="M310,73.6c-5.3,8.5-10.6,13.2-15.8,14c-5.3,0.8-9.9-0.8-13.8-4.9c-3.4-3.6-5.5-8.5-6.4-14.9
			c-1-7.1-0.3-13.2,2.2-18c2.6-4.8,6.6-7.7,12.1-8.5c5.4-0.8,9.9,0.9,13.5,5c3.2,3.7,5.5,9.5,6.8,17.3c-1.6,0-3.6,0.2-5.9,0.6
			c-5.4,0.8-11.4,1.8-18,3.1c0.5,2.8,1.3,5.3,2.6,7.4c1.7,2.9,3.8,4.2,6.2,3.8c2-0.3,3.6-1.8,4.8-4.5c1.1-2.4,1.7-4.8,1.8-7.1
			L310,73.6z M296,55.9c-0.4-1.9-1.2-3.3-2.4-4.4c-1.1-1-2.5-1.3-4.2-1.1c-2.1,0.3-3.7,1.9-4.8,4.8c-0.2,0.7-0.4,1.5-0.4,2.3
			L296,55.9z"/>
	</g>
</g>
<g>
	<g>
		<path class="st10" d="M93.8,55l1.5,10.7l-21.6,4.4l1.5,13.2l20.5-3L97,90.8l-16.2,2.4c-0.3,0-1.7,0.3-4.3,0.9
			c0.7,5.6,1.4,11.2,2.2,16.9c0.5,3.5,1.2,6.1,2,8l-13.9,1.8L61,73c-0.4-3.2-0.8-7.4-1.3-12.4L93.8,55z"/>
		<path class="st10" d="M135.7,110.2l-11.5,1.2l-0.1-0.6c-1.7,1.2-3.5,2-5.2,2.4c-4.6,0.5-8.7-0.2-12.3-2.2
			c-3.9-2.2-6.2-5.5-6.8-9.9c-0.8-5.6,1-10.3,5.4-14.2c2.9-2.6,6.7-4.2,11.3-4.8c1.2-0.2,2.6-0.2,4.3-0.1c-1.1-4.3-3.4-6.1-7-5.6
			c-2.6,0.4-4.9,1.5-7.1,3.2l-6.6-6.9c4.3-3.4,8.4-5.3,12.3-5.9c5.1-0.7,9.5,0.4,13,3.4c3.2,2.8,5.3,6.9,6.2,12.1
			c0.4,2.1,0.7,4.1,0.9,6l0.8,6.2c0.3,2.1,0.7,5.5,1.4,10.4C135.1,107.4,135.4,109.1,135.7,110.2z M121.8,91.3
			c-1.3-0.2-2.6-0.2-3.7,0c-2.6,0.4-4.6,1.4-5.9,3c-1.5,1.8-2.1,3.6-1.8,5.4c0.3,1.9,1.2,3.2,2.6,3.9c1.3,0.6,2.8,0.8,4.6,0.5
			c1.8-0.3,3.6-1.2,5.4-2.9L121.8,91.3z"/>
		<path class="st10" d="M167.4,77.4c0.3,1.5,0.6,4.3,1.1,8.4c0.4,3.2,1.3,9.8,2.7,19.8l-11.6,1.5c-0.1-2.6-0.5-7.4-1.3-14.6
			c-0.3-3.4-0.8-7.9-1.5-13.6c-0.3-2.3-0.9-4.2-1.8-5.7c-1.2-1.9-2.9-2.7-4.9-2.4c-1.7,0.3-3.2,1-4.5,2.1l1.6,13.5
			c0.4,3.5,1.4,10.9,3.1,22.2L138,110l-4.2-45.2l10.7-1c1.7-1.3,3.5-2.1,5.3-2.4c4.4-0.6,8.2,0.2,11.4,2.7
			C164.4,67.3,166.4,71.6,167.4,77.4z"/>
		<path class="st10" d="M198.2,59.4c0.1,1.8-0.6,4.3-2.1,7.7l-12.2,26.7c8.7-1.3,14.5-2.5,17.3-3.6l0.6,10.1
			c-2.5,1-6.1,1.8-10.7,2.5l-10.6,1.5c-5.2,0.8-8-0.5-8.5-3.7c-0.3-2.2,0.5-5.2,2.5-9.2c3.1-6,7-14.5,11.7-25.4l-7.5,1.1
			c-2.6,0.4-5.4,0.8-8.2,1.4l-1.9-9.6l20.9-3.1C194.6,55,197.6,56.2,198.2,59.4z"/>
		<path class="st10" d="M224.5,41.6c0,1.6-0.5,3.1-1.5,4.5c-1.1,1.3-2.5,2.1-4,2.3c-1.7,0.2-3.3-0.2-4.8-1c-1.5-0.9-2.4-2.2-2.6-3.9
			c-0.3-1.8,0.2-3.3,1.3-4.6s2.5-2,4.4-2.3c1.7-0.2,3.2,0.1,4.6,1.1C223.2,38.6,224.1,39.9,224.5,41.6z M225,53.2l3,24.2
			c0.3,2.4,1.2,8.9,2.8,19.6l-13.5,1.4L214,54.2L225,53.2z"/>
		<path class="st10" d="M272.5,62c0.3,1.5,0.6,4.3,1.1,8.4c0.4,3.2,1.3,9.8,2.7,19.8l-11.6,1.5c-0.1-2.6-0.5-7.4-1.3-14.6
			c-0.3-3.4-0.8-7.9-1.5-13.6c-0.3-2.3-0.9-4.2-1.8-5.7c-1.2-1.9-2.9-2.7-4.9-2.4c-1.7,0.3-3.2,1-4.5,2.1l1.6,13.5
			c0.4,3.5,1.4,10.9,3.1,22.2l-12.3,1.4l-4.2-45.2l10.7-1c1.7-1.3,3.5-2.1,5.3-2.4c4.4-0.6,8.2,0.2,11.4,2.7
			C269.6,51.9,271.6,56.3,272.5,62z"/>
		<path class="st10" d="M310,73.6c-5.3,8.5-10.6,13.2-15.8,14c-5.3,0.8-9.9-0.8-13.8-4.9c-3.4-3.6-5.5-8.5-6.4-14.9
			c-1-7.1-0.3-13.2,2.2-18c2.6-4.8,6.6-7.7,12.1-8.5c5.4-0.8,9.9,0.9,13.5,5c3.2,3.7,5.5,9.5,6.8,17.3c-1.6,0-3.6,0.2-5.9,0.6
			c-5.4,0.8-11.4,1.8-18,3.1c0.5,2.8,1.3,5.3,2.6,7.4c1.7,2.9,3.8,4.2,6.2,3.8c2-0.3,3.6-1.8,4.8-4.5c1.1-2.4,1.7-4.8,1.8-7.1
			L310,73.6z M296,55.9c-0.4-1.9-1.2-3.3-2.4-4.4c-1.1-1-2.5-1.3-4.2-1.1c-2.1,0.3-3.7,1.9-4.8,4.8c-0.2,0.7-0.4,1.5-0.4,2.3
			L296,55.9z"/>
	</g>
</g>
</svg>
